<svg width="1363" height="301" viewBox="0 0 1363 301" fill="none" xmlns="http://www.w3.org/2000/svg">
<rect width="1363" height="301" rx="15" fill="#F0F0F0"/>
<path d="M0 15C0 6.71573 6.71573 0 15 0H37V301H15C6.71573 301 0 294.284 0 286V15Z" fill="#6F1A07"/>
<path d="M104.407 104.898V144H94.981V104.898H104.407ZM119.607 121.173V128.424H101.722V121.173H119.607ZM121.138 104.898V112.176H101.722V104.898H121.138ZM141.011 136.937V114.942H150.088V144H141.602L141.011 136.937ZM141.871 131.029L144.234 130.975C144.234 132.927 144.001 134.735 143.536 136.4C143.07 138.047 142.381 139.479 141.468 140.697C140.573 141.914 139.463 142.863 138.138 143.543C136.831 144.206 135.318 144.537 133.599 144.537C132.167 144.537 130.851 144.34 129.651 143.946C128.47 143.535 127.449 142.899 126.59 142.04C125.73 141.162 125.059 140.043 124.576 138.683C124.11 137.304 123.877 135.657 123.877 133.741V114.942H132.928V133.795C132.928 134.439 133.008 134.994 133.169 135.46C133.331 135.925 133.563 136.319 133.868 136.642C134.172 136.946 134.548 137.179 134.996 137.34C135.461 137.483 135.989 137.555 136.58 137.555C137.941 137.555 139.006 137.268 139.776 136.695C140.546 136.122 141.083 135.344 141.387 134.359C141.709 133.374 141.871 132.264 141.871 131.029ZM164.214 122.14V144H155.164V114.942H163.624L164.214 122.14ZM172.808 114.728L172.647 123.133C172.289 123.097 171.806 123.053 171.197 122.999C170.588 122.945 170.078 122.918 169.666 122.918C168.61 122.918 167.697 123.044 166.927 123.294C166.175 123.527 165.548 123.885 165.047 124.369C164.563 124.834 164.205 125.425 163.973 126.141C163.758 126.857 163.659 127.69 163.677 128.639L162.039 127.564C162.039 125.613 162.227 123.84 162.603 122.247C162.997 120.636 163.552 119.248 164.268 118.084C164.984 116.903 165.853 115.999 166.873 115.372C167.894 114.728 169.039 114.405 170.311 114.405C170.758 114.405 171.197 114.432 171.626 114.486C172.074 114.54 172.468 114.62 172.808 114.728ZM184.812 121.146V144H175.762V114.942H184.249L184.812 121.146ZM183.738 128.478L181.617 128.531C181.617 126.311 181.885 124.333 182.422 122.596C182.959 120.842 183.72 119.356 184.705 118.138C185.69 116.921 186.862 115.999 188.223 115.372C189.602 114.728 191.132 114.405 192.815 114.405C194.158 114.405 195.385 114.602 196.495 114.996C197.623 115.39 198.589 116.026 199.395 116.903C200.219 117.78 200.845 118.944 201.275 120.394C201.722 121.826 201.946 123.599 201.946 125.711V144H192.842V125.685C192.842 124.521 192.681 123.635 192.359 123.026C192.037 122.399 191.571 121.97 190.962 121.737C190.354 121.504 189.611 121.388 188.733 121.388C187.802 121.388 187.015 121.567 186.37 121.925C185.726 122.283 185.206 122.784 184.812 123.429C184.437 124.055 184.159 124.798 183.98 125.658C183.819 126.517 183.738 127.457 183.738 128.478ZM216.529 114.942V144H207.452V114.942H216.529ZM206.915 107.45C206.915 106.161 207.38 105.104 208.311 104.281C209.242 103.457 210.451 103.045 211.937 103.045C213.423 103.045 214.631 103.457 215.562 104.281C216.493 105.104 216.958 106.161 216.958 107.45C216.958 108.739 216.493 109.795 215.562 110.619C214.631 111.442 213.423 111.854 211.937 111.854C210.451 111.854 209.242 111.442 208.311 110.619C207.38 109.795 206.915 108.739 206.915 107.45ZM231.971 104.898V144H222.544V104.898H231.971ZM247.171 121.173V128.424H229.285V121.173H247.171ZM248.702 104.898V112.176H229.285V104.898H248.702ZM268.575 136.937V114.942H277.652V144H269.166L268.575 136.937ZM269.434 131.029L271.797 130.975C271.797 132.927 271.565 134.735 271.099 136.4C270.634 138.047 269.944 139.479 269.031 140.697C268.136 141.914 267.026 142.863 265.701 143.543C264.394 144.206 262.881 144.537 261.163 144.537C259.73 144.537 258.414 144.34 257.215 143.946C256.033 143.535 255.013 142.899 254.153 142.04C253.294 141.162 252.623 140.043 252.139 138.683C251.674 137.304 251.441 135.657 251.441 133.741V114.942H260.491V133.795C260.491 134.439 260.572 134.994 260.733 135.46C260.894 135.925 261.127 136.319 261.431 136.642C261.736 136.946 262.111 137.179 262.559 137.34C263.025 137.483 263.553 137.555 264.144 137.555C265.504 137.555 266.569 137.268 267.339 136.695C268.109 136.122 268.646 135.344 268.951 134.359C269.273 133.374 269.434 132.264 269.434 131.029ZM297.955 114.942V121.227H280.445V114.942H297.955ZM284.124 107.718H293.174V134.52C293.174 135.29 293.264 135.89 293.443 136.319C293.622 136.731 293.926 137.027 294.356 137.206C294.804 137.367 295.394 137.447 296.128 137.447C296.648 137.447 297.077 137.438 297.417 137.42C297.758 137.385 298.08 137.34 298.384 137.286V143.758C297.614 144.009 296.809 144.197 295.967 144.322C295.126 144.465 294.231 144.537 293.282 144.537C291.348 144.537 289.692 144.233 288.313 143.624C286.953 143.015 285.914 142.057 285.198 140.75C284.482 139.444 284.124 137.743 284.124 135.648V107.718ZM318.526 136.937V114.942H327.603V144H319.117L318.526 136.937ZM319.385 131.029L321.749 130.975C321.749 132.927 321.516 134.735 321.05 136.4C320.585 138.047 319.896 139.479 318.982 140.697C318.087 141.914 316.977 142.863 315.652 143.543C314.345 144.206 312.833 144.537 311.114 144.537C309.681 144.537 308.366 144.34 307.166 143.946C305.984 143.535 304.964 142.899 304.104 142.04C303.245 141.162 302.574 140.043 302.09 138.683C301.625 137.304 301.392 135.657 301.392 133.741V114.942H310.442V133.795C310.442 134.439 310.523 134.994 310.684 135.46C310.845 135.925 311.078 136.319 311.382 136.642C311.687 136.946 312.063 137.179 312.51 137.34C312.976 137.483 313.504 137.555 314.095 137.555C315.455 137.555 316.521 137.268 317.291 136.695C318.06 136.122 318.597 135.344 318.902 134.359C319.224 133.374 319.385 132.264 319.385 131.029ZM341.729 122.14V144H332.679V114.942H341.138L341.729 122.14ZM350.323 114.728L350.162 123.133C349.804 123.097 349.32 123.053 348.711 122.999C348.103 122.945 347.592 122.918 347.181 122.918C346.124 122.918 345.211 123.044 344.441 123.294C343.689 123.527 343.063 123.885 342.562 124.369C342.078 124.834 341.72 125.425 341.487 126.141C341.272 126.857 341.174 127.69 341.192 128.639L339.554 127.564C339.554 125.613 339.742 123.84 340.118 122.247C340.512 120.636 341.067 119.248 341.783 118.084C342.499 116.903 343.367 115.999 344.388 115.372C345.408 114.728 346.554 114.405 347.825 114.405C348.273 114.405 348.711 114.432 349.141 114.486C349.589 114.54 349.983 114.62 350.323 114.728ZM366.973 144.537C364.61 144.537 362.497 144.17 360.635 143.436C358.773 142.684 357.198 141.655 355.909 140.348C354.638 139.041 353.662 137.537 352.981 135.836C352.319 134.135 351.988 132.336 351.988 130.438V129.417C351.988 127.287 352.283 125.318 352.874 123.509C353.465 121.683 354.342 120.09 355.506 118.729C356.67 117.368 358.129 116.312 359.883 115.56C361.638 114.79 363.679 114.405 366.006 114.405C368.065 114.405 369.909 114.736 371.539 115.399C373.168 116.061 374.546 117.01 375.674 118.246C376.82 119.481 377.688 120.976 378.279 122.73C378.888 124.485 379.192 126.454 379.192 128.639V132.318H355.452V126.651H370.357V125.953C370.375 124.986 370.205 124.163 369.847 123.482C369.507 122.802 369.005 122.283 368.343 121.925C367.68 121.567 366.875 121.388 365.926 121.388C364.941 121.388 364.126 121.603 363.482 122.032C362.855 122.462 362.363 123.053 362.005 123.805C361.665 124.539 361.423 125.389 361.28 126.356C361.137 127.323 361.065 128.343 361.065 129.417V130.438C361.065 131.512 361.208 132.488 361.495 133.365C361.799 134.243 362.229 134.994 362.784 135.621C363.357 136.23 364.037 136.704 364.825 137.044C365.63 137.385 366.543 137.555 367.564 137.555C368.799 137.555 370.017 137.322 371.216 136.856C372.416 136.391 373.445 135.621 374.305 134.547L378.414 139.435C377.823 140.276 376.981 141.091 375.889 141.878C374.815 142.666 373.526 143.311 372.022 143.812C370.518 144.295 368.835 144.537 366.973 144.537Z" fill="black"/>
<path d="M104.339 59.3726L97.5713 80H92.1196L101.365 55.1172H104.834L104.339 59.3726ZM109.961 80L103.177 59.3726L102.63 55.1172H106.133L115.43 80H109.961ZM109.654 70.7373V74.7534H96.5117V70.7373H109.654ZM122.232 53.75V80H117.31V53.75H122.232ZM121.531 70.105H120.181C120.193 68.8175 120.363 67.6326 120.694 66.5503C121.024 65.4565 121.497 64.5109 122.112 63.7134C122.728 62.9045 123.462 62.2778 124.317 61.8335C125.183 61.3892 126.14 61.167 127.188 61.167C128.099 61.167 128.925 61.298 129.666 61.5601C130.418 61.8107 131.062 62.2209 131.597 62.7905C132.144 63.3488 132.566 64.0837 132.862 64.9951C133.158 65.9066 133.306 67.0117 133.306 68.3105V80H128.35V68.2764C128.35 67.4561 128.23 66.8123 127.991 66.3452C127.763 65.8667 127.427 65.5306 126.983 65.3369C126.55 65.1318 126.014 65.0293 125.376 65.0293C124.67 65.0293 124.066 65.1603 123.565 65.4224C123.075 65.6844 122.682 66.049 122.386 66.5161C122.09 66.9718 121.873 67.5073 121.736 68.1226C121.6 68.7378 121.531 69.3986 121.531 70.105ZM141.971 65.3369V80H137.032V61.5088H141.663L141.971 65.3369ZM141.287 70.105H139.92C139.92 68.8175 140.074 67.6326 140.381 66.5503C140.7 65.4565 141.162 64.5109 141.766 63.7134C142.381 62.9045 143.139 62.2778 144.039 61.8335C144.939 61.3892 145.981 61.167 147.166 61.167C147.986 61.167 148.738 61.2923 149.422 61.543C150.105 61.7822 150.692 62.1639 151.182 62.688C151.683 63.2007 152.071 63.8729 152.344 64.7046C152.618 65.5249 152.754 66.5104 152.754 67.6611V80H147.833V68.208C147.833 67.3649 147.719 66.7155 147.491 66.2598C147.263 65.804 146.938 65.485 146.517 65.3027C146.106 65.1204 145.611 65.0293 145.03 65.0293C144.392 65.0293 143.833 65.1603 143.355 65.4224C142.888 65.6844 142.5 66.049 142.193 66.5161C141.885 66.9718 141.657 67.5073 141.509 68.1226C141.361 68.7378 141.287 69.3986 141.287 70.105ZM152.293 69.541L150.533 69.7632C150.533 68.5555 150.681 67.4333 150.977 66.3965C151.285 65.3597 151.735 64.4482 152.327 63.6621C152.931 62.876 153.677 62.2664 154.566 61.8335C155.455 61.3892 156.48 61.167 157.642 61.167C158.531 61.167 159.34 61.298 160.069 61.5601C160.798 61.8107 161.419 62.2152 161.932 62.7734C162.456 63.3203 162.854 64.0381 163.128 64.9268C163.413 65.8154 163.555 66.9035 163.555 68.1909V80H158.616V68.1909C158.616 67.3364 158.502 66.687 158.274 66.2427C158.058 65.7869 157.739 65.4736 157.317 65.3027C156.907 65.1204 156.417 65.0293 155.848 65.0293C155.255 65.0293 154.737 65.1489 154.292 65.3882C153.848 65.616 153.478 65.9351 153.182 66.3452C152.885 66.7554 152.663 67.2339 152.515 67.7808C152.367 68.3162 152.293 68.903 152.293 69.541ZM177.347 75.8301V67.5928C177.347 67.0003 177.25 66.4933 177.056 66.0718C176.862 65.6388 176.561 65.3027 176.15 65.0635C175.752 64.8242 175.233 64.7046 174.595 64.7046C174.048 64.7046 173.576 64.8014 173.177 64.9951C172.778 65.1774 172.47 65.4451 172.254 65.7983C172.037 66.1401 171.929 66.5446 171.929 67.0117H167.007C167.007 66.2256 167.19 65.4793 167.554 64.7729C167.919 64.0666 168.449 63.4456 169.144 62.9102C169.839 62.3633 170.665 61.936 171.622 61.6284C172.59 61.3208 173.672 61.167 174.869 61.167C176.304 61.167 177.58 61.4062 178.697 61.8848C179.813 62.3633 180.691 63.0811 181.329 64.0381C181.978 64.9951 182.303 66.1914 182.303 67.627V75.5396C182.303 76.5535 182.365 77.3853 182.491 78.0347C182.616 78.6727 182.798 79.231 183.038 79.7095V80H178.064C177.825 79.4987 177.643 78.8721 177.518 78.1201C177.404 77.3568 177.347 76.5934 177.347 75.8301ZM177.996 68.7378L178.03 71.5234H175.279C174.629 71.5234 174.065 71.5975 173.587 71.7456C173.108 71.8937 172.715 72.1045 172.408 72.3779C172.1 72.64 171.872 72.9476 171.724 73.3008C171.587 73.654 171.519 74.0413 171.519 74.4629C171.519 74.8844 171.616 75.2661 171.81 75.6079C172.003 75.9383 172.282 76.2004 172.647 76.394C173.012 76.5763 173.439 76.6675 173.929 76.6675C174.669 76.6675 175.313 76.5194 175.86 76.2231C176.407 75.9269 176.828 75.5623 177.125 75.1294C177.432 74.6965 177.592 74.2863 177.603 73.8989L178.902 75.9839C178.72 76.451 178.469 76.9352 178.15 77.4365C177.842 77.9378 177.449 78.4106 176.971 78.855C176.492 79.2879 175.917 79.6468 175.245 79.9316C174.572 80.2051 173.775 80.3418 172.852 80.3418C171.679 80.3418 170.613 80.1082 169.656 79.6411C168.711 79.1626 167.959 78.5075 167.4 77.6758C166.854 76.8327 166.58 75.8757 166.58 74.8047C166.58 73.8363 166.762 72.9761 167.127 72.2241C167.492 71.4722 168.027 70.8398 168.733 70.3271C169.451 69.8031 170.346 69.41 171.417 69.1479C172.487 68.8745 173.729 68.7378 175.142 68.7378H177.996ZM197.017 75.9668V53.75H201.973V80H197.513L197.017 75.9668ZM185.328 70.9766V70.6177C185.328 69.2049 185.487 67.9232 185.806 66.7725C186.125 65.6104 186.592 64.6134 187.208 63.7817C187.823 62.95 188.58 62.3063 189.48 61.8506C190.381 61.3949 191.406 61.167 192.557 61.167C193.639 61.167 194.585 61.3949 195.394 61.8506C196.214 62.3063 196.909 62.9557 197.479 63.7988C198.06 64.6305 198.527 65.616 198.88 66.7554C199.233 67.8833 199.489 69.1195 199.649 70.4639V71.25C199.489 72.5374 199.233 73.7337 198.88 74.8389C198.527 75.944 198.06 76.9124 197.479 77.7441C196.909 78.5645 196.214 79.2025 195.394 79.6582C194.573 80.1139 193.616 80.3418 192.522 80.3418C191.372 80.3418 190.346 80.1082 189.446 79.6411C188.558 79.174 187.806 78.5189 187.19 77.6758C186.587 76.8327 186.125 75.8415 185.806 74.7021C185.487 73.5628 185.328 72.321 185.328 70.9766ZM190.25 70.6177V70.9766C190.25 71.7399 190.306 72.452 190.42 73.1128C190.546 73.7736 190.745 74.3604 191.019 74.873C191.303 75.3743 191.668 75.7674 192.112 76.0522C192.568 76.3257 193.121 76.4624 193.77 76.4624C194.613 76.4624 195.308 76.2744 195.855 75.8984C196.402 75.5111 196.818 74.9813 197.103 74.3091C197.399 73.6369 197.57 72.8621 197.615 71.9849V69.7461C197.581 69.0283 197.479 68.3846 197.308 67.8149C197.148 67.2339 196.909 66.7383 196.59 66.3281C196.282 65.918 195.895 65.599 195.428 65.3711C194.972 65.1432 194.431 65.0293 193.804 65.0293C193.166 65.0293 192.619 65.1774 192.164 65.4736C191.708 65.7585 191.338 66.1515 191.053 66.6528C190.779 67.1541 190.574 67.7466 190.438 68.4302C190.312 69.1024 190.25 69.8315 190.25 70.6177ZM235.093 55.1172V80H229.966L219.969 63.3203V80H214.842V55.1172H219.969L229.983 71.814V55.1172H235.093ZM238.46 70.9424V70.5835C238.46 69.2277 238.654 67.9801 239.041 66.8408C239.428 65.6901 239.992 64.6932 240.733 63.8501C241.473 63.007 242.385 62.3519 243.467 61.8848C244.55 61.4062 245.792 61.167 247.193 61.167C248.594 61.167 249.842 61.4062 250.936 61.8848C252.029 62.3519 252.946 63.007 253.687 63.8501C254.439 64.6932 255.009 65.6901 255.396 66.8408C255.783 67.9801 255.977 69.2277 255.977 70.5835V70.9424C255.977 72.2868 255.783 73.5343 255.396 74.6851C255.009 75.8244 254.439 76.8213 253.687 77.6758C252.946 78.5189 252.035 79.174 250.953 79.6411C249.87 80.1082 248.628 80.3418 247.227 80.3418C245.826 80.3418 244.578 80.1082 243.484 79.6411C242.402 79.174 241.485 78.5189 240.733 77.6758C239.992 76.8213 239.428 75.8244 239.041 74.6851C238.654 73.5343 238.46 72.2868 238.46 70.9424ZM243.382 70.5835V70.9424C243.382 71.7171 243.45 72.4406 243.587 73.1128C243.724 73.785 243.94 74.3774 244.236 74.8901C244.544 75.3914 244.943 75.7845 245.433 76.0693C245.923 76.3542 246.521 76.4966 247.227 76.4966C247.911 76.4966 248.497 76.3542 248.987 76.0693C249.477 75.7845 249.87 75.3914 250.167 74.8901C250.463 74.3774 250.679 73.785 250.816 73.1128C250.964 72.4406 251.038 71.7171 251.038 70.9424V70.5835C251.038 69.8315 250.964 69.1252 250.816 68.4644C250.679 67.7922 250.457 67.1997 250.149 66.687C249.853 66.1629 249.46 65.7528 248.97 65.4565C248.48 65.1603 247.888 65.0122 247.193 65.0122C246.498 65.0122 245.905 65.1603 245.416 65.4565C244.937 65.7528 244.544 66.1629 244.236 66.687C243.94 67.1997 243.724 67.7922 243.587 68.4644C243.45 69.1252 243.382 69.8315 243.382 70.5835ZM269.939 75.5737V61.5088H274.861V80H270.23L269.939 75.5737ZM270.486 71.7798L271.939 71.7456C271.939 72.9761 271.797 74.1211 271.512 75.1807C271.227 76.2288 270.8 77.1403 270.23 77.915C269.66 78.6784 268.943 79.2765 268.077 79.7095C267.211 80.131 266.191 80.3418 265.018 80.3418C264.118 80.3418 263.286 80.2165 262.522 79.9658C261.771 79.7038 261.121 79.2993 260.574 78.7524C260.039 78.1942 259.617 77.4821 259.31 76.6162C259.013 75.7389 258.865 74.6851 258.865 73.4546V61.5088H263.787V73.4888C263.787 74.0356 263.85 74.4971 263.975 74.873C264.112 75.249 264.3 75.5566 264.539 75.7959C264.778 76.0352 265.057 76.2061 265.376 76.3086C265.707 76.4111 266.071 76.4624 266.47 76.4624C267.484 76.4624 268.282 76.2573 268.863 75.8472C269.455 75.437 269.871 74.8787 270.11 74.1724C270.361 73.4546 270.486 72.6571 270.486 71.7798ZM283.543 65.542V80H278.621V61.5088H283.252L283.543 65.542ZM289.114 61.3892L289.029 65.9521C288.79 65.918 288.499 65.8895 288.157 65.8667C287.827 65.8325 287.525 65.8154 287.251 65.8154C286.556 65.8154 285.953 65.9066 285.44 66.0889C284.939 66.2598 284.517 66.5161 284.175 66.8579C283.845 67.1997 283.594 67.6156 283.423 68.1055C283.264 68.5954 283.173 69.1536 283.15 69.7803L282.159 69.4727C282.159 68.2764 282.278 67.1769 282.518 66.1743C282.757 65.1603 283.104 64.2773 283.56 63.5254C284.027 62.7734 284.597 62.1924 285.269 61.7822C285.941 61.3721 286.71 61.167 287.576 61.167C287.85 61.167 288.129 61.1898 288.414 61.2354C288.698 61.2695 288.932 61.3208 289.114 61.3892ZM299.607 80.3418C298.172 80.3418 296.884 80.1139 295.745 79.6582C294.606 79.1911 293.637 78.5474 292.84 77.7271C292.054 76.9067 291.45 75.9554 291.028 74.873C290.607 73.7793 290.396 72.6172 290.396 71.3867V70.7031C290.396 69.3018 290.595 68.02 290.994 66.8579C291.393 65.6958 291.963 64.6875 292.703 63.833C293.455 62.9785 294.367 62.3234 295.438 61.8677C296.508 61.4006 297.716 61.167 299.061 61.167C300.371 61.167 301.533 61.3835 302.547 61.8164C303.561 62.2493 304.41 62.8646 305.093 63.6621C305.788 64.4596 306.312 65.4167 306.666 66.5332C307.019 67.6383 307.195 68.8688 307.195 70.2246V72.2754H292.498V68.9941H302.359V68.6182C302.359 67.9346 302.234 67.325 301.983 66.7896C301.744 66.2427 301.379 65.8097 300.889 65.4907C300.399 65.1717 299.773 65.0122 299.009 65.0122C298.36 65.0122 297.802 65.1546 297.334 65.4395C296.867 65.7243 296.486 66.123 296.189 66.6357C295.905 67.1484 295.688 67.7523 295.54 68.4473C295.403 69.1309 295.335 69.8828 295.335 70.7031V71.3867C295.335 72.1273 295.438 72.8109 295.643 73.4375C295.859 74.0641 296.161 74.6053 296.548 75.061C296.947 75.5168 297.426 75.87 297.984 76.1206C298.554 76.3713 299.197 76.4966 299.915 76.4966C300.804 76.4966 301.63 76.3257 302.393 75.9839C303.168 75.6307 303.834 75.1009 304.393 74.3945L306.785 76.9922C306.398 77.5505 305.868 78.0859 305.196 78.5986C304.535 79.1113 303.737 79.5329 302.803 79.8633C301.869 80.1823 300.804 80.3418 299.607 80.3418ZM320.918 75.9668V53.75H325.875V80H321.414L320.918 75.9668ZM309.229 70.9766V70.6177C309.229 69.2049 309.389 67.9232 309.708 66.7725C310.027 65.6104 310.494 64.6134 311.109 63.7817C311.724 62.95 312.482 62.3063 313.382 61.8506C314.282 61.3949 315.307 61.167 316.458 61.167C317.54 61.167 318.486 61.3949 319.295 61.8506C320.115 62.3063 320.81 62.9557 321.38 63.7988C321.961 64.6305 322.428 65.616 322.781 66.7554C323.134 67.8833 323.391 69.1195 323.55 70.4639V71.25C323.391 72.5374 323.134 73.7337 322.781 74.8389C322.428 75.944 321.961 76.9124 321.38 77.7441C320.81 78.5645 320.115 79.2025 319.295 79.6582C318.475 80.1139 317.518 80.3418 316.424 80.3418C315.273 80.3418 314.248 80.1082 313.348 79.6411C312.459 79.174 311.707 78.5189 311.092 77.6758C310.488 76.8327 310.027 75.8415 309.708 74.7021C309.389 73.5628 309.229 72.321 309.229 70.9766ZM314.151 70.6177V70.9766C314.151 71.7399 314.208 72.452 314.322 73.1128C314.447 73.7736 314.646 74.3604 314.92 74.873C315.205 75.3743 315.569 75.7674 316.014 76.0522C316.469 76.3257 317.022 76.4624 317.671 76.4624C318.514 76.4624 319.209 76.2744 319.756 75.8984C320.303 75.5111 320.719 74.9813 321.004 74.3091C321.3 73.6369 321.471 72.8621 321.517 71.9849V69.7461C321.482 69.0283 321.38 68.3846 321.209 67.8149C321.049 67.2339 320.81 66.7383 320.491 66.3281C320.184 65.918 319.796 65.599 319.329 65.3711C318.873 65.1432 318.332 65.0293 317.706 65.0293C317.068 65.0293 316.521 65.1774 316.065 65.4736C315.609 65.7585 315.239 66.1515 314.954 66.6528C314.681 67.1541 314.476 67.7466 314.339 68.4302C314.214 69.1024 314.151 69.8315 314.151 70.6177ZM340.64 75.9668V53.75H345.596V80H341.136L340.64 75.9668ZM328.951 70.9766V70.6177C328.951 69.2049 329.11 67.9232 329.429 66.7725C329.748 65.6104 330.215 64.6134 330.831 63.7817C331.446 62.95 332.203 62.3063 333.104 61.8506C334.004 61.3949 335.029 61.167 336.18 61.167C337.262 61.167 338.208 61.3949 339.017 61.8506C339.837 62.3063 340.532 62.9557 341.102 63.7988C341.683 64.6305 342.15 65.616 342.503 66.7554C342.856 67.8833 343.112 69.1195 343.272 70.4639V71.25C343.112 72.5374 342.856 73.7337 342.503 74.8389C342.15 75.944 341.683 76.9124 341.102 77.7441C340.532 78.5645 339.837 79.2025 339.017 79.6582C338.196 80.1139 337.239 80.3418 336.146 80.3418C334.995 80.3418 333.969 80.1082 333.069 79.6411C332.181 79.174 331.429 78.5189 330.813 77.6758C330.21 76.8327 329.748 75.8415 329.429 74.7021C329.11 73.5628 328.951 72.321 328.951 70.9766ZM333.873 70.6177V70.9766C333.873 71.7399 333.93 72.452 334.043 73.1128C334.169 73.7736 334.368 74.3604 334.642 74.873C334.926 75.3743 335.291 75.7674 335.735 76.0522C336.191 76.3257 336.744 76.4624 337.393 76.4624C338.236 76.4624 338.931 76.2744 339.478 75.8984C340.025 75.5111 340.441 74.9813 340.726 74.3091C341.022 73.6369 341.193 72.8621 341.238 71.9849V69.7461C341.204 69.0283 341.102 68.3846 340.931 67.8149C340.771 67.2339 340.532 66.7383 340.213 66.3281C339.905 65.918 339.518 65.599 339.051 65.3711C338.595 65.1432 338.054 65.0293 337.427 65.0293C336.789 65.0293 336.242 65.1774 335.787 65.4736C335.331 65.7585 334.961 66.1515 334.676 66.6528C334.402 67.1541 334.197 67.7466 334.061 68.4302C333.935 69.1024 333.873 69.8315 333.873 70.6177ZM354.637 61.5088V80H349.698V61.5088H354.637ZM349.39 56.6895C349.39 55.9717 349.641 55.3792 350.142 54.9121C350.643 54.445 351.316 54.2114 352.159 54.2114C352.99 54.2114 353.657 54.445 354.158 54.9121C354.671 55.3792 354.927 55.9717 354.927 56.6895C354.927 57.4072 354.671 57.9997 354.158 58.4668C353.657 58.9339 352.99 59.1675 352.159 59.1675C351.316 59.1675 350.643 58.9339 350.142 58.4668C349.641 57.9997 349.39 57.4072 349.39 56.6895ZM363.523 65.4565V80H358.602V61.5088H363.216L363.523 65.4565ZM362.806 70.105H361.473C361.473 68.7378 361.649 67.5073 362.002 66.4136C362.356 65.3084 362.851 64.3685 363.489 63.5938C364.127 62.8076 364.885 62.2095 365.762 61.7993C366.651 61.3778 367.642 61.167 368.736 61.167C369.602 61.167 370.394 61.2923 371.111 61.543C371.829 61.7936 372.444 62.1924 372.957 62.7393C373.481 63.2861 373.88 64.0096 374.153 64.9097C374.438 65.8097 374.581 66.9092 374.581 68.208V80H369.625V68.1909C369.625 67.3706 369.511 66.7326 369.283 66.2769C369.055 65.8211 368.719 65.5021 368.274 65.3198C367.841 65.1261 367.306 65.0293 366.668 65.0293C366.007 65.0293 365.432 65.1603 364.942 65.4224C364.463 65.6844 364.065 66.049 363.746 66.5161C363.438 66.9718 363.204 67.5073 363.045 68.1226C362.885 68.7378 362.806 69.3986 362.806 70.105ZM386.834 80.3418C385.398 80.3418 384.111 80.1139 382.972 79.6582C381.832 79.1911 380.864 78.5474 380.066 77.7271C379.28 76.9067 378.676 75.9554 378.255 74.873C377.833 73.7793 377.623 72.6172 377.623 71.3867V70.7031C377.623 69.3018 377.822 68.02 378.221 66.8579C378.619 65.6958 379.189 64.6875 379.93 63.833C380.682 62.9785 381.593 62.3234 382.664 61.8677C383.735 61.4006 384.943 61.167 386.287 61.167C387.597 61.167 388.759 61.3835 389.773 61.8164C390.787 62.2493 391.636 62.8646 392.32 63.6621C393.015 64.4596 393.539 65.4167 393.892 66.5332C394.245 67.6383 394.422 68.8688 394.422 70.2246V72.2754H379.725V68.9941H389.585V68.6182C389.585 67.9346 389.46 67.325 389.209 66.7896C388.97 66.2427 388.606 65.8097 388.116 65.4907C387.626 65.1717 386.999 65.0122 386.236 65.0122C385.586 65.0122 385.028 65.1546 384.561 65.4395C384.094 65.7243 383.712 66.123 383.416 66.6357C383.131 67.1484 382.915 67.7523 382.767 68.4473C382.63 69.1309 382.562 69.8828 382.562 70.7031V71.3867C382.562 72.1273 382.664 72.8109 382.869 73.4375C383.086 74.0641 383.388 74.6053 383.775 75.061C384.174 75.5168 384.652 75.87 385.21 76.1206C385.78 76.3713 386.424 76.4966 387.142 76.4966C388.03 76.4966 388.856 76.3257 389.62 75.9839C390.394 75.6307 391.061 75.1009 391.619 74.3945L394.012 76.9922C393.624 77.5505 393.095 78.0859 392.422 78.5986C391.762 79.1113 390.964 79.5329 390.03 79.8633C389.096 80.1823 388.03 80.3418 386.834 80.3418Z" fill="#888888"/>
<rect x="92" y="181" width="1179" height="80" rx="13.3333" fill="#CCCCCC"/>
<rect x="107" y="196.333" width="208" height="49.3333" rx="4.66667" fill="#888888" stroke="#888888" stroke-width="4"/>
<path d="M171.823 213.167H177.792C178.958 213.167 179.972 213.34 180.833 213.687C181.694 214.035 182.358 214.549 182.823 215.229C183.295 215.91 183.531 216.75 183.531 217.75C183.531 218.618 183.396 219.344 183.125 219.927C182.854 220.51 182.476 220.993 181.99 221.375C181.51 221.75 180.951 222.059 180.312 222.302L179.115 222.979H174.104L174.083 220.156H177.792C178.257 220.156 178.642 220.073 178.948 219.906C179.253 219.74 179.483 219.503 179.635 219.198C179.795 218.885 179.875 218.514 179.875 218.083C179.875 217.646 179.795 217.271 179.635 216.958C179.476 216.646 179.24 216.406 178.927 216.24C178.622 216.073 178.243 215.99 177.792 215.99H175.479V228.333H171.823V213.167ZM180.125 228.333L176.771 221.625L180.646 221.604L184.042 228.177V228.333H180.125ZM191.031 228.542C190.115 228.542 189.295 228.399 188.573 228.115C187.851 227.823 187.24 227.424 186.74 226.917C186.247 226.41 185.868 225.826 185.604 225.167C185.347 224.507 185.219 223.809 185.219 223.073V222.677C185.219 221.851 185.333 221.087 185.562 220.385C185.792 219.677 186.132 219.059 186.583 218.531C187.035 218.003 187.601 217.594 188.281 217.302C188.962 217.003 189.753 216.854 190.656 216.854C191.455 216.854 192.17 216.983 192.802 217.24C193.434 217.497 193.969 217.865 194.406 218.344C194.851 218.823 195.187 219.403 195.417 220.083C195.653 220.764 195.771 221.528 195.771 222.375V223.802H186.562V221.604H192.344V221.333C192.351 220.958 192.285 220.639 192.146 220.375C192.014 220.111 191.819 219.91 191.562 219.771C191.306 219.632 190.993 219.562 190.625 219.562C190.243 219.562 189.927 219.646 189.677 219.812C189.434 219.979 189.243 220.208 189.104 220.5C188.972 220.785 188.878 221.115 188.823 221.49C188.767 221.865 188.74 222.26 188.74 222.677V223.073C188.74 223.49 188.795 223.868 188.906 224.208C189.024 224.549 189.191 224.84 189.406 225.083C189.628 225.319 189.892 225.503 190.198 225.635C190.51 225.767 190.865 225.833 191.26 225.833C191.74 225.833 192.212 225.743 192.677 225.562C193.142 225.382 193.542 225.083 193.875 224.667L195.469 226.562C195.24 226.889 194.913 227.205 194.49 227.51C194.073 227.816 193.573 228.066 192.99 228.26C192.406 228.448 191.753 228.542 191.031 228.542ZM203.052 225.5V220.854C203.052 220.535 203.007 220.26 202.917 220.031C202.826 219.802 202.684 219.625 202.49 219.5C202.295 219.368 202.035 219.302 201.708 219.302C201.444 219.302 201.219 219.347 201.031 219.437C200.844 219.528 200.701 219.663 200.604 219.844C200.507 220.024 200.458 220.253 200.458 220.531H196.948C196.948 220.01 197.062 219.528 197.292 219.083C197.528 218.632 197.861 218.24 198.292 217.906C198.729 217.573 199.25 217.316 199.854 217.135C200.465 216.948 201.146 216.854 201.896 216.854C202.792 216.854 203.59 217.003 204.292 217.302C205 217.601 205.559 218.049 205.969 218.646C206.378 219.236 206.583 219.979 206.583 220.875V225.49C206.583 226.226 206.625 226.785 206.708 227.167C206.792 227.542 206.91 227.872 207.062 228.156V228.333H203.542C203.375 227.986 203.25 227.562 203.167 227.062C203.09 226.556 203.052 226.035 203.052 225.5ZM203.479 221.448L203.5 223.323H201.948C201.622 223.323 201.344 223.368 201.115 223.458C200.892 223.549 200.712 223.674 200.573 223.833C200.441 223.986 200.344 224.16 200.281 224.354C200.226 224.549 200.198 224.753 200.198 224.969C200.198 225.177 200.247 225.365 200.344 225.531C200.448 225.691 200.587 225.816 200.76 225.906C200.934 225.997 201.128 226.042 201.344 226.042C201.733 226.042 202.062 225.969 202.333 225.823C202.611 225.67 202.823 225.486 202.969 225.271C203.115 225.056 203.187 224.854 203.187 224.667L203.958 226.104C203.819 226.382 203.66 226.663 203.479 226.948C203.306 227.233 203.087 227.497 202.823 227.74C202.566 227.976 202.25 228.17 201.875 228.323C201.5 228.469 201.045 228.542 200.51 228.542C199.816 228.542 199.177 228.399 198.594 228.115C198.017 227.83 197.556 227.434 197.208 226.927C196.861 226.413 196.687 225.823 196.687 225.156C196.687 224.573 196.792 224.052 197 223.594C197.215 223.135 197.538 222.747 197.969 222.427C198.399 222.108 198.948 221.865 199.615 221.698C200.281 221.531 201.066 221.448 201.969 221.448H203.479ZM213.292 225.833C213.618 225.833 213.896 225.774 214.125 225.656C214.361 225.531 214.538 225.358 214.656 225.135C214.781 224.906 214.84 224.632 214.833 224.312H218.135C218.142 225.16 217.934 225.903 217.51 226.542C217.094 227.174 216.524 227.667 215.802 228.021C215.087 228.368 214.278 228.542 213.375 228.542C212.493 228.542 211.722 228.399 211.062 228.115C210.403 227.823 209.851 227.42 209.406 226.906C208.969 226.385 208.639 225.778 208.417 225.083C208.201 224.389 208.094 223.635 208.094 222.823V222.583C208.094 221.771 208.201 221.017 208.417 220.323C208.639 219.622 208.969 219.014 209.406 218.5C209.851 217.979 210.399 217.576 211.052 217.292C211.712 217 212.479 216.854 213.354 216.854C214.292 216.854 215.118 217.031 215.833 217.385C216.556 217.74 217.122 218.253 217.531 218.927C217.941 219.601 218.142 220.417 218.135 221.375H214.833C214.84 221.035 214.788 220.729 214.677 220.458C214.566 220.187 214.392 219.972 214.156 219.812C213.927 219.646 213.632 219.562 213.271 219.562C212.91 219.562 212.618 219.642 212.396 219.802C212.174 219.962 212.003 220.184 211.885 220.469C211.774 220.747 211.698 221.066 211.656 221.427C211.622 221.788 211.604 222.174 211.604 222.583V222.823C211.604 223.24 211.622 223.632 211.656 224C211.698 224.361 211.778 224.681 211.896 224.958C212.014 225.229 212.184 225.444 212.406 225.604C212.628 225.757 212.924 225.833 213.292 225.833ZM225.573 217.062V219.5H218.781V217.062H225.573ZM220.208 214.26H223.719V224.656C223.719 224.955 223.753 225.187 223.823 225.354C223.892 225.514 224.01 225.628 224.177 225.698C224.351 225.76 224.58 225.792 224.865 225.792C225.066 225.792 225.233 225.788 225.365 225.781C225.497 225.767 225.622 225.75 225.74 225.729V228.24C225.441 228.337 225.128 228.41 224.802 228.458C224.476 228.514 224.128 228.542 223.76 228.542C223.01 228.542 222.368 228.424 221.833 228.187C221.306 227.951 220.903 227.58 220.625 227.073C220.347 226.566 220.208 225.906 220.208 225.094V214.26ZM233.167 223.573V213.167H236.812V223.573C236.812 224.587 236.58 225.465 236.115 226.208C235.656 226.951 235.031 227.528 234.24 227.937C233.455 228.34 232.573 228.542 231.594 228.542C230.58 228.542 229.677 228.372 228.885 228.031C228.101 227.691 227.483 227.167 227.031 226.458C226.587 225.75 226.365 224.847 226.365 223.75H230.031C230.031 224.264 230.09 224.667 230.208 224.958C230.326 225.243 230.5 225.444 230.729 225.562C230.965 225.674 231.253 225.729 231.594 225.729C231.927 225.729 232.208 225.646 232.437 225.479C232.674 225.306 232.854 225.059 232.979 224.74C233.104 224.413 233.167 224.024 233.167 223.573ZM246.948 224.302C246.948 224.066 246.913 223.854 246.844 223.667C246.774 223.472 246.646 223.292 246.458 223.125C246.271 222.958 246 222.792 245.646 222.625C245.299 222.451 244.84 222.271 244.271 222.083C243.604 221.861 242.962 221.611 242.344 221.333C241.726 221.049 241.174 220.719 240.687 220.344C240.201 219.962 239.816 219.517 239.531 219.01C239.247 218.497 239.104 217.899 239.104 217.219C239.104 216.566 239.25 215.979 239.542 215.458C239.833 214.931 240.24 214.483 240.76 214.115C241.288 213.74 241.906 213.455 242.615 213.26C243.323 213.059 244.097 212.958 244.937 212.958C246.049 212.958 247.028 213.153 247.875 213.542C248.729 213.924 249.396 214.469 249.875 215.177C250.361 215.878 250.604 216.708 250.604 217.667H246.969C246.969 217.285 246.889 216.948 246.729 216.656C246.576 216.365 246.344 216.135 246.031 215.969C245.719 215.802 245.326 215.719 244.854 215.719C244.396 215.719 244.01 215.788 243.698 215.927C243.385 216.066 243.149 216.253 242.99 216.49C242.83 216.719 242.75 216.972 242.75 217.25C242.75 217.479 242.812 217.687 242.937 217.875C243.069 218.056 243.253 218.226 243.49 218.385C243.733 218.545 244.024 218.698 244.365 218.844C244.712 218.99 245.101 219.132 245.531 219.271C246.337 219.528 247.052 219.816 247.677 220.135C248.309 220.448 248.84 220.806 249.271 221.208C249.708 221.604 250.038 222.056 250.26 222.562C250.49 223.069 250.604 223.642 250.604 224.281C250.604 224.962 250.472 225.566 250.208 226.094C249.944 226.622 249.566 227.069 249.073 227.437C248.58 227.799 247.99 228.073 247.302 228.26C246.615 228.448 245.847 228.542 245 228.542C244.222 228.542 243.455 228.444 242.698 228.25C241.948 228.049 241.267 227.743 240.656 227.333C240.045 226.917 239.556 226.385 239.187 225.74C238.826 225.087 238.646 224.312 238.646 223.417H242.312C242.312 223.861 242.372 224.236 242.49 224.542C242.608 224.847 242.781 225.094 243.01 225.281C243.24 225.462 243.521 225.594 243.854 225.677C244.187 225.753 244.569 225.792 245 225.792C245.465 225.792 245.84 225.726 246.125 225.594C246.41 225.455 246.618 225.274 246.75 225.052C246.882 224.823 246.948 224.573 246.948 224.302Z" fill="white"/>
<rect x="339" y="196.333" width="208" height="49.3333" rx="4.66667" fill="#888888" stroke="#888888" stroke-width="4"/>
<path d="M419.073 225.521V228.333H411.406V225.521H419.073ZM412.708 213.167V228.333H409.052V213.167H412.708ZM426.302 225.5V220.854C426.302 220.535 426.257 220.26 426.167 220.031C426.076 219.802 425.934 219.625 425.74 219.5C425.545 219.368 425.285 219.302 424.958 219.302C424.694 219.302 424.469 219.347 424.281 219.437C424.094 219.528 423.951 219.663 423.854 219.844C423.757 220.024 423.708 220.253 423.708 220.531H420.198C420.198 220.01 420.312 219.528 420.542 219.083C420.778 218.632 421.111 218.24 421.542 217.906C421.979 217.573 422.5 217.316 423.104 217.135C423.715 216.948 424.396 216.854 425.146 216.854C426.042 216.854 426.84 217.003 427.542 217.302C428.25 217.601 428.809 218.049 429.219 218.646C429.628 219.236 429.833 219.979 429.833 220.875V225.49C429.833 226.226 429.875 226.785 429.958 227.167C430.042 227.542 430.16 227.872 430.312 228.156V228.333H426.792C426.625 227.986 426.5 227.562 426.417 227.062C426.34 226.556 426.302 226.035 426.302 225.5ZM426.729 221.448L426.75 223.323H425.198C424.872 223.323 424.594 223.368 424.365 223.458C424.142 223.549 423.962 223.674 423.823 223.833C423.691 223.986 423.594 224.16 423.531 224.354C423.476 224.549 423.448 224.753 423.448 224.969C423.448 225.177 423.497 225.365 423.594 225.531C423.698 225.691 423.837 225.816 424.01 225.906C424.184 225.997 424.378 226.042 424.594 226.042C424.983 226.042 425.312 225.969 425.583 225.823C425.861 225.67 426.073 225.486 426.219 225.271C426.365 225.056 426.437 224.854 426.437 224.667L427.208 226.104C427.069 226.382 426.91 226.663 426.729 226.948C426.556 227.233 426.337 227.497 426.073 227.74C425.816 227.976 425.5 228.17 425.125 228.323C424.75 228.469 424.295 228.542 423.76 228.542C423.066 228.542 422.427 228.399 421.844 228.115C421.267 227.83 420.806 227.434 420.458 226.927C420.111 226.413 419.937 225.823 419.937 225.156C419.937 224.573 420.042 224.052 420.25 223.594C420.465 223.135 420.788 222.747 421.219 222.427C421.649 222.108 422.198 221.865 422.865 221.698C423.531 221.531 424.316 221.448 425.219 221.448H426.729ZM435.323 219.854V228.333H431.812V217.062H435.094L435.323 219.854ZM438.656 216.979L438.594 220.24C438.455 220.226 438.267 220.208 438.031 220.187C437.795 220.167 437.597 220.156 437.437 220.156C437.028 220.156 436.674 220.205 436.375 220.302C436.083 220.392 435.84 220.531 435.646 220.719C435.458 220.899 435.319 221.128 435.229 221.406C435.146 221.684 435.108 222.007 435.115 222.375L434.479 221.958C434.479 221.201 434.552 220.514 434.698 219.896C434.851 219.271 435.066 218.733 435.344 218.281C435.622 217.823 435.958 217.472 436.354 217.229C436.75 216.979 437.194 216.854 437.687 216.854C437.861 216.854 438.031 216.865 438.198 216.885C438.372 216.906 438.524 216.937 438.656 216.979ZM445.406 225.5V220.854C445.406 220.535 445.361 220.26 445.271 220.031C445.181 219.802 445.038 219.625 444.844 219.5C444.649 219.368 444.389 219.302 444.063 219.302C443.799 219.302 443.573 219.347 443.385 219.437C443.198 219.528 443.056 219.663 442.958 219.844C442.861 220.024 442.813 220.253 442.813 220.531H439.302C439.302 220.01 439.417 219.528 439.646 219.083C439.882 218.632 440.215 218.24 440.646 217.906C441.083 217.573 441.604 217.316 442.208 217.135C442.819 216.948 443.5 216.854 444.25 216.854C445.146 216.854 445.944 217.003 446.646 217.302C447.354 217.601 447.913 218.049 448.323 218.646C448.733 219.236 448.938 219.979 448.938 220.875V225.49C448.938 226.226 448.979 226.785 449.063 227.167C449.146 227.542 449.264 227.872 449.417 228.156V228.333H445.896C445.729 227.986 445.604 227.562 445.521 227.062C445.444 226.556 445.406 226.035 445.406 225.5ZM445.833 221.448L445.854 223.323H444.302C443.976 223.323 443.698 223.368 443.469 223.458C443.247 223.549 443.066 223.674 442.927 223.833C442.795 223.986 442.698 224.16 442.635 224.354C442.58 224.549 442.552 224.753 442.552 224.969C442.552 225.177 442.601 225.365 442.698 225.531C442.802 225.691 442.941 225.816 443.115 225.906C443.288 225.997 443.483 226.042 443.698 226.042C444.087 226.042 444.417 225.969 444.688 225.823C444.965 225.67 445.177 225.486 445.323 225.271C445.469 225.056 445.542 224.854 445.542 224.667L446.313 226.104C446.174 226.382 446.014 226.663 445.833 226.948C445.66 227.233 445.441 227.497 445.177 227.74C444.92 227.976 444.604 228.17 444.229 228.323C443.854 228.469 443.399 228.542 442.865 228.542C442.17 228.542 441.531 228.399 440.948 228.115C440.372 227.83 439.91 227.434 439.563 226.927C439.215 226.413 439.042 225.823 439.042 225.156C439.042 224.573 439.146 224.052 439.354 223.594C439.569 223.135 439.892 222.747 440.323 222.427C440.753 222.108 441.302 221.865 441.969 221.698C442.635 221.531 443.42 221.448 444.323 221.448H445.833ZM454.781 225.927L457 217.062H460.698L457.01 228.333H454.823L454.781 225.927ZM453.469 217.062L455.656 225.927L455.635 228.333H453.437L449.76 217.062H453.469ZM467.052 228.542C466.135 228.542 465.316 228.399 464.594 228.115C463.872 227.823 463.26 227.424 462.76 226.917C462.267 226.41 461.889 225.826 461.625 225.167C461.368 224.507 461.24 223.809 461.24 223.073V222.677C461.24 221.851 461.354 221.087 461.583 220.385C461.812 219.677 462.153 219.059 462.604 218.531C463.056 218.003 463.622 217.594 464.302 217.302C464.983 217.003 465.774 216.854 466.677 216.854C467.476 216.854 468.191 216.983 468.823 217.24C469.455 217.497 469.99 217.865 470.427 218.344C470.872 218.823 471.208 219.403 471.437 220.083C471.674 220.764 471.792 221.528 471.792 222.375V223.802H462.583V221.604H468.365V221.333C468.372 220.958 468.306 220.639 468.167 220.375C468.035 220.111 467.84 219.91 467.583 219.771C467.326 219.632 467.014 219.562 466.646 219.562C466.264 219.562 465.948 219.646 465.698 219.812C465.455 219.979 465.264 220.208 465.125 220.5C464.993 220.785 464.899 221.115 464.844 221.49C464.788 221.865 464.76 222.26 464.76 222.677V223.073C464.76 223.49 464.816 223.868 464.927 224.208C465.045 224.549 465.212 224.84 465.427 225.083C465.649 225.319 465.913 225.503 466.219 225.635C466.531 225.767 466.885 225.833 467.281 225.833C467.76 225.833 468.233 225.743 468.698 225.562C469.163 225.382 469.562 225.083 469.896 224.667L471.49 226.562C471.26 226.889 470.934 227.205 470.51 227.51C470.094 227.816 469.594 228.066 469.01 228.26C468.427 228.448 467.774 228.542 467.052 228.542ZM476.927 212.333V228.333H473.406V212.333H476.927Z" fill="white"/>
<rect x="571" y="196.333" width="208" height="49.3333" rx="4.66667" fill="#888888" stroke="#888888" stroke-width="4"/>
<path d="M630.656 213.167H633.635L637.021 223.719L640.406 213.167H643.385L638.229 228.333H635.813L630.656 213.167ZM628.844 213.167H631.927L632.5 224.792V228.333H628.844V213.167ZM642.115 213.167H645.208V228.333H641.542V224.792L642.115 213.167ZM646.948 222.812V222.594C646.948 221.767 647.066 221.007 647.302 220.312C647.538 219.611 647.885 219.003 648.344 218.49C648.802 217.976 649.368 217.576 650.042 217.292C650.715 217 651.493 216.854 652.375 216.854C653.264 216.854 654.045 217 654.719 217.292C655.399 217.576 655.969 217.976 656.427 218.49C656.885 219.003 657.233 219.611 657.469 220.312C657.705 221.007 657.823 221.767 657.823 222.594V222.812C657.823 223.632 657.705 224.392 657.469 225.094C657.233 225.788 656.885 226.396 656.427 226.917C655.969 227.431 655.403 227.83 654.729 228.115C654.056 228.399 653.278 228.542 652.396 228.542C651.514 228.542 650.733 228.399 650.052 228.115C649.372 227.83 648.802 227.431 648.344 226.917C647.885 226.396 647.538 225.788 647.302 225.094C647.066 224.392 646.948 223.632 646.948 222.812ZM650.458 222.594V222.812C650.458 223.236 650.49 223.632 650.552 224C650.615 224.368 650.719 224.691 650.865 224.969C651.01 225.24 651.208 225.451 651.458 225.604C651.708 225.757 652.021 225.833 652.396 225.833C652.764 225.833 653.069 225.757 653.313 225.604C653.563 225.451 653.76 225.24 653.906 224.969C654.052 224.691 654.156 224.368 654.219 224C654.281 223.632 654.313 223.236 654.313 222.812V222.594C654.313 222.184 654.281 221.799 654.219 221.437C654.156 221.069 654.052 220.747 653.906 220.469C653.76 220.184 653.563 219.962 653.313 219.802C653.063 219.642 652.75 219.562 652.375 219.562C652.007 219.562 651.698 219.642 651.448 219.802C651.205 219.962 651.01 220.184 650.865 220.469C650.719 220.747 650.615 221.069 650.552 221.437C650.49 221.799 650.458 222.184 650.458 222.594ZM662.833 219.469V228.333H659.323V217.062H662.615L662.833 219.469ZM662.417 222.312L661.594 222.333C661.594 221.472 661.698 220.705 661.906 220.031C662.115 219.351 662.41 218.774 662.792 218.302C663.174 217.83 663.628 217.472 664.156 217.229C664.691 216.979 665.285 216.854 665.938 216.854C666.458 216.854 666.934 216.931 667.365 217.083C667.802 217.236 668.177 217.483 668.49 217.823C668.809 218.163 669.052 218.615 669.219 219.177C669.392 219.733 669.479 220.42 669.479 221.24V228.333H665.948V221.229C665.948 220.778 665.885 220.434 665.76 220.198C665.635 219.955 665.455 219.788 665.219 219.698C664.983 219.608 664.694 219.562 664.354 219.562C663.993 219.562 663.688 219.632 663.438 219.771C663.188 219.91 662.986 220.104 662.833 220.354C662.688 220.597 662.58 220.885 662.51 221.219C662.448 221.552 662.417 221.917 662.417 222.312ZM678.51 217.062H681.698V227.896C681.698 228.937 681.458 229.819 680.979 230.542C680.5 231.271 679.83 231.823 678.969 232.198C678.115 232.58 677.115 232.771 675.969 232.771C675.462 232.771 674.944 232.705 674.417 232.573C673.889 232.448 673.396 232.26 672.938 232.01C672.479 231.76 672.094 231.451 671.781 231.083L673.25 229.021C673.535 229.34 673.892 229.611 674.323 229.833C674.753 230.062 675.26 230.177 675.844 230.177C676.351 230.177 676.774 230.087 677.115 229.906C677.462 229.726 677.726 229.462 677.906 229.115C678.087 228.774 678.177 228.361 678.177 227.875V219.729L678.51 217.062ZM671.021 222.833V222.615C671.021 221.76 671.125 220.983 671.333 220.281C671.549 219.573 671.854 218.965 672.25 218.458C672.653 217.944 673.139 217.549 673.708 217.271C674.278 216.993 674.92 216.854 675.635 216.854C676.406 216.854 677.038 217.003 677.531 217.302C678.031 217.594 678.431 218.003 678.729 218.531C679.035 219.059 679.271 219.677 679.438 220.385C679.611 221.087 679.757 221.844 679.875 222.656V222.917C679.757 223.681 679.594 224.403 679.385 225.083C679.184 225.757 678.92 226.354 678.594 226.875C678.267 227.396 677.858 227.806 677.365 228.104C676.878 228.396 676.295 228.542 675.615 228.542C674.906 228.542 674.267 228.399 673.698 228.115C673.135 227.83 672.653 227.431 672.25 226.917C671.854 226.403 671.549 225.799 671.333 225.104C671.125 224.41 671.021 223.653 671.021 222.833ZM674.531 222.615V222.833C674.531 223.257 674.569 223.649 674.646 224.01C674.729 224.372 674.854 224.691 675.021 224.969C675.188 225.24 675.392 225.451 675.635 225.604C675.885 225.757 676.177 225.833 676.51 225.833C677.017 225.833 677.427 225.726 677.74 225.51C678.052 225.295 678.278 224.99 678.417 224.594C678.556 224.198 678.615 223.733 678.594 223.198V222.375C678.608 221.917 678.576 221.514 678.5 221.167C678.424 220.812 678.302 220.517 678.135 220.281C677.976 220.045 677.76 219.868 677.49 219.75C677.226 219.625 676.906 219.562 676.531 219.562C676.205 219.562 675.917 219.639 675.667 219.792C675.417 219.944 675.208 220.16 675.042 220.437C674.875 220.708 674.747 221.031 674.656 221.406C674.573 221.774 674.531 222.177 674.531 222.615ZM683.281 222.812V222.594C683.281 221.767 683.399 221.007 683.635 220.312C683.872 219.611 684.219 219.003 684.677 218.49C685.135 217.976 685.701 217.576 686.375 217.292C687.049 217 687.826 216.854 688.708 216.854C689.597 216.854 690.378 217 691.052 217.292C691.733 217.576 692.302 217.976 692.76 218.49C693.219 219.003 693.566 219.611 693.802 220.312C694.038 221.007 694.156 221.767 694.156 222.594V222.812C694.156 223.632 694.038 224.392 693.802 225.094C693.566 225.788 693.219 226.396 692.76 226.917C692.302 227.431 691.736 227.83 691.063 228.115C690.389 228.399 689.611 228.542 688.729 228.542C687.847 228.542 687.066 228.399 686.385 228.115C685.705 227.83 685.135 227.431 684.677 226.917C684.219 226.396 683.872 225.788 683.635 225.094C683.399 224.392 683.281 223.632 683.281 222.812ZM686.792 222.594V222.812C686.792 223.236 686.823 223.632 686.885 224C686.948 224.368 687.052 224.691 687.198 224.969C687.344 225.24 687.542 225.451 687.792 225.604C688.042 225.757 688.354 225.833 688.729 225.833C689.097 225.833 689.403 225.757 689.646 225.604C689.896 225.451 690.094 225.24 690.24 224.969C690.385 224.691 690.49 224.368 690.552 224C690.615 223.632 690.646 223.236 690.646 222.812V222.594C690.646 222.184 690.615 221.799 690.552 221.437C690.49 221.069 690.385 220.747 690.24 220.469C690.094 220.184 689.896 219.962 689.646 219.802C689.396 219.642 689.083 219.562 688.708 219.562C688.34 219.562 688.031 219.642 687.781 219.802C687.538 219.962 687.344 220.184 687.198 220.469C687.052 220.747 686.948 221.069 686.885 221.437C686.823 221.799 686.792 222.184 686.792 222.594ZM700.813 228.333H697.448L697.469 225.521H700.813C701.507 225.521 702.094 225.354 702.573 225.021C703.059 224.687 703.427 224.191 703.677 223.531C703.934 222.865 704.063 222.045 704.063 221.073V220.417C704.063 219.687 703.99 219.049 703.844 218.5C703.705 217.944 703.497 217.483 703.219 217.115C702.941 216.74 702.594 216.458 702.177 216.271C701.767 216.083 701.295 215.99 700.76 215.99H697.385V213.167H700.76C701.788 213.167 702.729 213.344 703.583 213.698C704.444 214.045 705.188 214.545 705.813 215.198C706.444 215.844 706.931 216.611 707.271 217.5C707.618 218.382 707.792 219.361 707.792 220.437V221.073C707.792 222.142 707.618 223.122 707.271 224.01C706.931 224.899 706.448 225.667 705.823 226.312C705.198 226.958 704.458 227.458 703.604 227.812C702.757 228.16 701.826 228.333 700.813 228.333ZM699.542 213.167V228.333H695.885V213.167H699.542ZM715.885 221.885H711.979L711.958 219.49H715.125C715.694 219.49 716.149 219.427 716.49 219.302C716.83 219.17 717.076 218.979 717.229 218.729C717.389 218.479 717.469 218.167 717.469 217.792C717.469 217.361 717.389 217.014 717.229 216.75C717.069 216.486 716.816 216.295 716.469 216.177C716.128 216.052 715.688 215.99 715.146 215.99H713.354V228.333H709.698V213.167H715.146C716.083 213.167 716.92 213.253 717.656 213.427C718.392 213.594 719.017 213.851 719.531 214.198C720.052 214.545 720.448 214.983 720.719 215.51C720.99 216.031 721.125 216.646 721.125 217.354C721.125 217.972 720.993 218.552 720.729 219.094C720.465 219.635 720.024 220.076 719.406 220.417C718.795 220.75 717.958 220.924 716.896 220.937L715.885 221.885ZM715.74 228.333H711.094L712.344 225.521H715.74C716.24 225.521 716.639 225.444 716.938 225.292C717.243 225.132 717.462 224.924 717.594 224.667C717.733 224.403 717.802 224.111 717.802 223.792C717.802 223.403 717.736 223.066 717.604 222.781C717.479 222.497 717.278 222.278 717 222.125C716.722 221.965 716.351 221.885 715.885 221.885H712.813L712.833 219.49H716.51L717.365 220.448C718.378 220.406 719.181 220.549 719.771 220.875C720.368 221.201 720.795 221.632 721.052 222.167C721.309 222.701 721.438 223.26 721.438 223.844C721.438 224.837 721.222 225.667 720.792 226.333C720.368 227 719.733 227.5 718.885 227.833C718.038 228.167 716.99 228.333 715.74 228.333Z" fill="white"/>
</svg>
