<svg width="1363" height="167" viewBox="0 0 1363 167" fill="none" xmlns="http://www.w3.org/2000/svg">
<rect width="1363" height="167" rx="15" fill="#F0F0F0"/>
<path d="M0 15C0 6.71573 6.71573 0 15 0H37V167H15C6.71573 167 0 160.284 0 152V15Z" fill="#424241"/>
<path d="M100.906 50.9219L93.3945 48.2383V45.0859L103.602 49.375V51.6367L100.906 50.9219ZM93.3945 53.1719L100.918 50.4297L103.602 49.7852V52.0352L93.3945 56.3242V53.1719ZM115.414 40.9375V58H111.898V40.9375H115.414ZM122.211 48.2266V50.9688H114.453V48.2266H122.211ZM123.031 40.9375V43.6914H114.453V40.9375H123.031ZM132.102 54.9648V45.3203H135.477V58H132.301L132.102 54.9648ZM132.477 52.3633L133.473 52.3398C133.473 53.1836 133.375 53.9688 133.18 54.6953C132.984 55.4141 132.691 56.0391 132.301 56.5703C131.91 57.0938 131.418 57.5039 130.824 57.8008C130.23 58.0898 129.531 58.2344 128.727 58.2344C128.109 58.2344 127.539 58.1484 127.016 57.9766C126.5 57.7969 126.055 57.5195 125.68 57.1445C125.312 56.7617 125.023 56.2734 124.812 55.6797C124.609 55.0781 124.508 54.3555 124.508 53.5117V45.3203H127.883V53.5352C127.883 53.9102 127.926 54.2266 128.012 54.4844C128.105 54.7422 128.234 54.9531 128.398 55.1172C128.562 55.2812 128.754 55.3984 128.973 55.4688C129.199 55.5391 129.449 55.5742 129.723 55.5742C130.418 55.5742 130.965 55.4336 131.363 55.1523C131.77 54.8711 132.055 54.4883 132.219 54.0039C132.391 53.5117 132.477 52.9648 132.477 52.3633ZM141.43 48.0859V58H138.055V45.3203H141.23L141.43 48.0859ZM145.25 45.2383L145.191 48.3672C145.027 48.3438 144.828 48.3242 144.594 48.3086C144.367 48.2852 144.16 48.2734 143.973 48.2734C143.496 48.2734 143.082 48.3359 142.73 48.4609C142.387 48.5781 142.098 48.7539 141.863 48.9883C141.637 49.2227 141.465 49.5078 141.348 49.8438C141.238 50.1797 141.176 50.5625 141.16 50.9922L140.48 50.7812C140.48 49.9609 140.562 49.207 140.727 48.5195C140.891 47.8242 141.129 47.2188 141.441 46.7031C141.762 46.1875 142.152 45.7891 142.613 45.5078C143.074 45.2266 143.602 45.0859 144.195 45.0859C144.383 45.0859 144.574 45.1016 144.77 45.1328C144.965 45.1562 145.125 45.1914 145.25 45.2383ZM150.148 48.0273V58H146.773V45.3203H149.938L150.148 48.0273ZM149.656 51.2148H148.742C148.742 50.2773 148.863 49.4336 149.105 48.6836C149.348 47.9258 149.688 47.2812 150.125 46.75C150.562 46.2109 151.082 45.8008 151.684 45.5195C152.293 45.2305 152.973 45.0859 153.723 45.0859C154.316 45.0859 154.859 45.1719 155.352 45.3438C155.844 45.5156 156.266 45.7891 156.617 46.1641C156.977 46.5391 157.25 47.0352 157.438 47.6523C157.633 48.2695 157.73 49.0234 157.73 49.9141V58H154.332V49.9023C154.332 49.3398 154.254 48.9023 154.098 48.5898C153.941 48.2773 153.711 48.0586 153.406 47.9336C153.109 47.8008 152.742 47.7344 152.305 47.7344C151.852 47.7344 151.457 47.8242 151.121 48.0039C150.793 48.1836 150.52 48.4336 150.301 48.7539C150.09 49.0664 149.93 49.4336 149.82 49.8555C149.711 50.2773 149.656 50.7305 149.656 51.2148ZM163.859 45.3203V58H160.473V45.3203H163.859ZM160.262 42.0156C160.262 41.5234 160.434 41.1172 160.777 40.7969C161.121 40.4766 161.582 40.3164 162.16 40.3164C162.73 40.3164 163.188 40.4766 163.531 40.7969C163.883 41.1172 164.059 41.5234 164.059 42.0156C164.059 42.5078 163.883 42.9141 163.531 43.2344C163.188 43.5547 162.73 43.7148 162.16 43.7148C161.582 43.7148 161.121 43.5547 160.777 43.2344C160.434 42.9141 160.262 42.5078 160.262 42.0156ZM170.375 40.9375V58H166.859V40.9375H170.375ZM177.172 48.2266V50.9688H169.414V48.2266H177.172ZM177.992 40.9375V43.6914H169.414V40.9375H177.992ZM187.062 54.9648V45.3203H190.438V58H187.262L187.062 54.9648ZM187.438 52.3633L188.434 52.3398C188.434 53.1836 188.336 53.9688 188.141 54.6953C187.945 55.4141 187.652 56.0391 187.262 56.5703C186.871 57.0938 186.379 57.5039 185.785 57.8008C185.191 58.0898 184.492 58.2344 183.688 58.2344C183.07 58.2344 182.5 58.1484 181.977 57.9766C181.461 57.7969 181.016 57.5195 180.641 57.1445C180.273 56.7617 179.984 56.2734 179.773 55.6797C179.57 55.0781 179.469 54.3555 179.469 53.5117V45.3203H182.844V53.5352C182.844 53.9102 182.887 54.2266 182.973 54.4844C183.066 54.7422 183.195 54.9531 183.359 55.1172C183.523 55.2812 183.715 55.3984 183.934 55.4688C184.16 55.5391 184.41 55.5742 184.684 55.5742C185.379 55.5742 185.926 55.4336 186.324 55.1523C186.73 54.8711 187.016 54.4883 187.18 54.0039C187.352 53.5117 187.438 52.9648 187.438 52.3633ZM199.227 45.3203V47.7109H191.844V45.3203H199.227ZM193.672 42.1914H197.047V54.1797C197.047 54.5469 197.094 54.8281 197.188 55.0234C197.289 55.2188 197.438 55.3555 197.633 55.4336C197.828 55.5039 198.074 55.5391 198.371 55.5391C198.582 55.5391 198.77 55.5312 198.934 55.5156C199.105 55.4922 199.25 55.4688 199.367 55.4453L199.379 57.9297C199.09 58.0234 198.777 58.0977 198.441 58.1523C198.105 58.207 197.734 58.2344 197.328 58.2344C196.586 58.2344 195.938 58.1133 195.383 57.8711C194.836 57.6211 194.414 57.2227 194.117 56.6758C193.82 56.1289 193.672 55.4102 193.672 54.5195V42.1914ZM208.648 54.9648V45.3203H212.023V58H208.848L208.648 54.9648ZM209.023 52.3633L210.02 52.3398C210.02 53.1836 209.922 53.9688 209.727 54.6953C209.531 55.4141 209.238 56.0391 208.848 56.5703C208.457 57.0938 207.965 57.5039 207.371 57.8008C206.777 58.0898 206.078 58.2344 205.273 58.2344C204.656 58.2344 204.086 58.1484 203.562 57.9766C203.047 57.7969 202.602 57.5195 202.227 57.1445C201.859 56.7617 201.57 56.2734 201.359 55.6797C201.156 55.0781 201.055 54.3555 201.055 53.5117V45.3203H204.43V53.5352C204.43 53.9102 204.473 54.2266 204.559 54.4844C204.652 54.7422 204.781 54.9531 204.945 55.1172C205.109 55.2812 205.301 55.3984 205.52 55.4688C205.746 55.5391 205.996 55.5742 206.27 55.5742C206.965 55.5742 207.512 55.4336 207.91 55.1523C208.316 54.8711 208.602 54.4883 208.766 54.0039C208.938 53.5117 209.023 52.9648 209.023 52.3633ZM217.977 48.0859V58H214.602V45.3203H217.777L217.977 48.0859ZM221.797 45.2383L221.738 48.3672C221.574 48.3438 221.375 48.3242 221.141 48.3086C220.914 48.2852 220.707 48.2734 220.52 48.2734C220.043 48.2734 219.629 48.3359 219.277 48.4609C218.934 48.5781 218.645 48.7539 218.41 48.9883C218.184 49.2227 218.012 49.5078 217.895 49.8438C217.785 50.1797 217.723 50.5625 217.707 50.9922L217.027 50.7812C217.027 49.9609 217.109 49.207 217.273 48.5195C217.438 47.8242 217.676 47.2188 217.988 46.7031C218.309 46.1875 218.699 45.7891 219.16 45.5078C219.621 45.2266 220.148 45.0859 220.742 45.0859C220.93 45.0859 221.121 45.1016 221.316 45.1328C221.512 45.1562 221.672 45.1914 221.797 45.2383ZM228.992 58.2344C228.008 58.2344 227.125 58.0781 226.344 57.7656C225.562 57.4453 224.898 57.0039 224.352 56.4414C223.812 55.8789 223.398 55.2266 223.109 54.4844C222.82 53.7344 222.676 52.9375 222.676 52.0938V51.625C222.676 50.6641 222.812 49.7852 223.086 48.9883C223.359 48.1914 223.75 47.5 224.258 46.9141C224.773 46.3281 225.398 45.8789 226.133 45.5664C226.867 45.2461 227.695 45.0859 228.617 45.0859C229.516 45.0859 230.312 45.2344 231.008 45.5312C231.703 45.8281 232.285 46.25 232.754 46.7969C233.23 47.3438 233.59 48 233.832 48.7656C234.074 49.5234 234.195 50.3672 234.195 51.2969V52.7031H224.117V50.4531H230.879V50.1953C230.879 49.7266 230.793 49.3086 230.621 48.9414C230.457 48.5664 230.207 48.2695 229.871 48.0508C229.535 47.832 229.105 47.7227 228.582 47.7227C228.137 47.7227 227.754 47.8203 227.434 48.0156C227.113 48.2109 226.852 48.4844 226.648 48.8359C226.453 49.1875 226.305 49.6016 226.203 50.0781C226.109 50.5469 226.062 51.0625 226.062 51.625V52.0938C226.062 52.6016 226.133 53.0703 226.273 53.5C226.422 53.9297 226.629 54.3008 226.895 54.6133C227.168 54.9258 227.496 55.168 227.879 55.3398C228.27 55.5117 228.711 55.5977 229.203 55.5977C229.812 55.5977 230.379 55.4805 230.902 55.2461C231.434 55.0039 231.891 54.6406 232.273 54.1562L233.914 55.9375C233.648 56.3203 233.285 56.6875 232.824 57.0391C232.371 57.3906 231.824 57.6797 231.184 57.9062C230.543 58.125 229.812 58.2344 228.992 58.2344Z" fill="#888888"/>
<path d="M109.93 86.0078V118H102.217V86.0078H109.93ZM119.554 86.0078V91.9624H92.813V86.0078H119.554ZM132.012 118.439C130.079 118.439 128.35 118.139 126.827 117.539C125.303 116.923 124.014 116.081 122.959 115.012C121.919 113.942 121.121 112.712 120.564 111.32C120.022 109.929 119.751 108.457 119.751 106.904V106.069C119.751 104.326 119.993 102.714 120.477 101.235C120.96 99.7407 121.678 98.437 122.63 97.3237C123.582 96.2104 124.776 95.3462 126.211 94.731C127.647 94.1011 129.317 93.7861 131.221 93.7861C132.906 93.7861 134.415 94.0571 135.748 94.5991C137.081 95.1411 138.208 95.9175 139.131 96.9282C140.069 97.939 140.779 99.1621 141.263 100.598C141.761 102.033 142.01 103.645 142.01 105.432V108.442H122.586V103.806H134.781V103.234C134.795 102.443 134.656 101.77 134.363 101.213C134.085 100.656 133.675 100.231 133.133 99.9385C132.591 99.6455 131.932 99.499 131.155 99.499C130.35 99.499 129.683 99.6748 129.156 100.026C128.643 100.378 128.24 100.861 127.947 101.477C127.669 102.077 127.471 102.773 127.354 103.564C127.237 104.355 127.178 105.19 127.178 106.069V106.904C127.178 107.783 127.295 108.581 127.53 109.299C127.779 110.017 128.13 110.632 128.584 111.145C129.053 111.643 129.61 112.031 130.254 112.309C130.914 112.587 131.661 112.727 132.496 112.727C133.506 112.727 134.502 112.536 135.484 112.155C136.465 111.774 137.308 111.145 138.011 110.266L141.373 114.265C140.889 114.953 140.201 115.62 139.307 116.264C138.428 116.909 137.374 117.436 136.143 117.846C134.913 118.242 133.536 118.439 132.012 118.439ZM155.062 112.727C155.75 112.727 156.336 112.602 156.819 112.353C157.317 112.089 157.691 111.723 157.94 111.254C158.204 110.771 158.328 110.192 158.313 109.519H165.279C165.293 111.306 164.854 112.873 163.96 114.221C163.082 115.554 161.88 116.594 160.357 117.341C158.848 118.073 157.142 118.439 155.237 118.439C153.377 118.439 151.751 118.139 150.359 117.539C148.968 116.923 147.803 116.074 146.866 114.99C145.943 113.891 145.247 112.609 144.778 111.145C144.324 109.68 144.097 108.09 144.097 106.376V105.871C144.097 104.157 144.324 102.568 144.778 101.103C145.247 99.6235 145.943 98.3418 146.866 97.2578C147.803 96.1592 148.96 95.3096 150.337 94.709C151.729 94.0938 153.348 93.7861 155.193 93.7861C157.171 93.7861 158.914 94.1597 160.423 94.9067C161.946 95.6538 163.14 96.7378 164.004 98.1587C164.869 99.5796 165.293 101.301 165.279 103.322H158.313C158.328 102.604 158.218 101.96 157.984 101.389C157.75 100.817 157.383 100.363 156.885 100.026C156.402 99.6748 155.779 99.499 155.018 99.499C154.256 99.499 153.641 99.6675 153.172 100.004C152.703 100.341 152.344 100.81 152.095 101.411C151.861 101.997 151.7 102.67 151.612 103.432C151.539 104.194 151.502 105.007 151.502 105.871V106.376C151.502 107.255 151.539 108.083 151.612 108.859C151.7 109.621 151.868 110.295 152.117 110.881C152.366 111.452 152.725 111.906 153.194 112.243C153.663 112.565 154.285 112.727 155.062 112.727ZM175.694 84.25V118H168.289V84.25H175.694ZM174.815 105.3L173.079 105.344C173.079 103.674 173.284 102.136 173.694 100.729C174.104 99.3232 174.69 98.1001 175.452 97.0601C176.214 96.02 177.129 95.2144 178.199 94.6431C179.268 94.0718 180.455 93.7861 181.758 93.7861C182.93 93.7861 184 93.9546 184.966 94.2915C185.948 94.6284 186.79 95.1704 187.493 95.9175C188.211 96.6646 188.76 97.6387 189.141 98.8398C189.537 100.041 189.734 101.506 189.734 103.234V118H182.286V103.19C182.286 102.224 182.146 101.477 181.868 100.949C181.604 100.407 181.224 100.034 180.726 99.8286C180.228 99.6089 179.62 99.499 178.902 99.499C178.038 99.499 177.334 99.6455 176.792 99.9385C176.25 100.231 175.833 100.642 175.54 101.169C175.262 101.682 175.071 102.29 174.969 102.993C174.866 103.696 174.815 104.465 174.815 105.3ZM221.88 109.497C221.88 108.999 221.807 108.552 221.661 108.156C221.514 107.746 221.243 107.365 220.848 107.014C220.452 106.662 219.881 106.311 219.134 105.959C218.401 105.593 217.435 105.212 216.233 104.816C214.827 104.348 213.472 103.82 212.168 103.234C210.865 102.634 209.7 101.938 208.675 101.147C207.649 100.341 206.836 99.4038 206.236 98.3345C205.635 97.2505 205.335 95.9907 205.335 94.5552C205.335 93.1782 205.643 91.9404 206.258 90.8418C206.873 89.7285 207.73 88.7837 208.829 88.0073C209.942 87.2163 211.246 86.6157 212.74 86.2056C214.234 85.7808 215.867 85.5684 217.64 85.5684C219.983 85.5684 222.049 85.9785 223.836 86.7988C225.638 87.6045 227.044 88.7544 228.055 90.2485C229.08 91.728 229.593 93.4785 229.593 95.5H221.924C221.924 94.6943 221.756 93.9839 221.419 93.3687C221.097 92.7534 220.606 92.27 219.947 91.9185C219.288 91.5669 218.46 91.3911 217.464 91.3911C216.497 91.3911 215.684 91.5376 215.025 91.8306C214.366 92.1235 213.868 92.519 213.531 93.0171C213.194 93.5005 213.025 94.0352 213.025 94.6211C213.025 95.1045 213.157 95.5439 213.421 95.9395C213.699 96.3203 214.087 96.6792 214.585 97.0161C215.098 97.353 215.713 97.6753 216.431 97.9829C217.164 98.2905 217.984 98.5908 218.892 98.8838C220.591 99.4258 222.1 100.034 223.418 100.708C224.751 101.367 225.872 102.121 226.78 102.971C227.703 103.806 228.399 104.758 228.868 105.827C229.351 106.896 229.593 108.105 229.593 109.453C229.593 110.888 229.314 112.163 228.758 113.276C228.201 114.389 227.403 115.334 226.363 116.11C225.323 116.872 224.078 117.451 222.627 117.846C221.177 118.242 219.559 118.439 217.771 118.439C216.131 118.439 214.512 118.234 212.916 117.824C211.333 117.399 209.898 116.755 208.609 115.891C207.32 115.012 206.287 113.891 205.511 112.529C204.749 111.152 204.368 109.519 204.368 107.629H212.103C212.103 108.566 212.227 109.357 212.476 110.002C212.725 110.646 213.091 111.167 213.575 111.562C214.058 111.943 214.651 112.221 215.354 112.397C216.058 112.558 216.863 112.639 217.771 112.639C218.753 112.639 219.544 112.5 220.145 112.221C220.745 111.928 221.185 111.547 221.463 111.079C221.741 110.595 221.88 110.068 221.88 109.497ZM245.743 94.2256V99.3672H231.417V94.2256H245.743ZM234.427 88.3149H241.832V110.244C241.832 110.874 241.905 111.364 242.051 111.716C242.198 112.053 242.447 112.294 242.798 112.441C243.165 112.573 243.648 112.639 244.249 112.639C244.673 112.639 245.025 112.631 245.303 112.617C245.582 112.587 245.845 112.551 246.094 112.507V117.802C245.464 118.007 244.805 118.161 244.117 118.264C243.428 118.381 242.696 118.439 241.919 118.439C240.337 118.439 238.982 118.19 237.854 117.692C236.741 117.194 235.892 116.411 235.306 115.341C234.72 114.272 234.427 112.88 234.427 111.167V88.3149ZM261.036 112.023V102.224C261.036 101.55 260.94 100.971 260.75 100.488C260.56 100.004 260.259 99.6309 259.849 99.3672C259.439 99.0889 258.89 98.9497 258.201 98.9497C257.645 98.9497 257.168 99.0449 256.773 99.2354C256.377 99.4258 256.077 99.7114 255.872 100.092C255.667 100.473 255.564 100.957 255.564 101.542H248.16C248.16 100.444 248.401 99.4258 248.885 98.4883C249.383 97.5361 250.086 96.7085 250.994 96.0054C251.917 95.3022 253.016 94.7603 254.29 94.3794C255.579 93.9839 257.015 93.7861 258.597 93.7861C260.486 93.7861 262.171 94.1011 263.65 94.731C265.145 95.3608 266.324 96.3057 267.188 97.5654C268.052 98.8105 268.484 100.378 268.484 102.268V112.001C268.484 113.554 268.572 114.733 268.748 115.539C268.924 116.33 269.173 117.026 269.495 117.626V118H262.068C261.717 117.268 261.453 116.374 261.277 115.319C261.116 114.25 261.036 113.151 261.036 112.023ZM261.937 103.476L261.98 107.431H258.707C258.018 107.431 257.432 107.526 256.949 107.717C256.48 107.907 256.099 108.171 255.806 108.508C255.528 108.83 255.323 109.196 255.191 109.606C255.074 110.017 255.015 110.449 255.015 110.903C255.015 111.342 255.118 111.738 255.323 112.089C255.542 112.426 255.835 112.69 256.202 112.88C256.568 113.071 256.978 113.166 257.432 113.166C258.252 113.166 258.948 113.012 259.52 112.705C260.105 112.382 260.552 111.994 260.86 111.54C261.167 111.086 261.321 110.661 261.321 110.266L262.947 113.298C262.654 113.884 262.317 114.477 261.937 115.078C261.57 115.678 261.109 116.235 260.552 116.748C260.01 117.246 259.344 117.656 258.553 117.978C257.762 118.286 256.802 118.439 255.674 118.439C254.209 118.439 252.862 118.139 251.631 117.539C250.416 116.938 249.441 116.103 248.709 115.034C247.977 113.95 247.61 112.705 247.61 111.298C247.61 110.068 247.83 108.969 248.27 108.002C248.724 107.036 249.405 106.215 250.313 105.542C251.221 104.868 252.378 104.355 253.785 104.003C255.191 103.652 256.846 103.476 258.75 103.476H261.937ZM282.635 112.727C283.323 112.727 283.909 112.602 284.393 112.353C284.891 112.089 285.264 111.723 285.513 111.254C285.777 110.771 285.901 110.192 285.887 109.519H292.852C292.867 111.306 292.427 112.873 291.534 114.221C290.655 115.554 289.454 116.594 287.93 117.341C286.421 118.073 284.715 118.439 282.811 118.439C280.95 118.439 279.324 118.139 277.933 117.539C276.541 116.923 275.376 116.074 274.439 114.99C273.516 113.891 272.82 112.609 272.352 111.145C271.897 109.68 271.67 108.09 271.67 106.376V105.871C271.67 104.157 271.897 102.568 272.352 101.103C272.82 99.6235 273.516 98.3418 274.439 97.2578C275.376 96.1592 276.534 95.3096 277.911 94.709C279.302 94.0938 280.921 93.7861 282.767 93.7861C284.744 93.7861 286.487 94.1597 287.996 94.9067C289.52 95.6538 290.713 96.7378 291.578 98.1587C292.442 99.5796 292.867 101.301 292.852 103.322H285.887C285.901 102.604 285.792 101.96 285.557 101.389C285.323 100.817 284.957 100.363 284.458 100.026C283.975 99.6748 283.353 99.499 282.591 99.499C281.829 99.499 281.214 99.6675 280.745 100.004C280.276 100.341 279.917 100.81 279.668 101.411C279.434 101.997 279.273 102.67 279.185 103.432C279.112 104.194 279.075 105.007 279.075 105.871V106.376C279.075 107.255 279.112 108.083 279.185 108.859C279.273 109.621 279.441 110.295 279.69 110.881C279.939 111.452 280.298 111.906 280.767 112.243C281.236 112.565 281.858 112.727 282.635 112.727ZM303.487 84.228V118H296.082V84.228H303.487ZM318.692 94.2256L308.365 106.333L302.959 111.738L299.729 107.036L304.234 101.169L309.815 94.2256H318.692ZM310.76 118L304.41 107.167L309.881 103.278L319.241 118H310.76Z" fill="#424241"/>
<path d="M1363 15C1363 6.71573 1356.28 0 1348 0H1134V167H1348C1356.28 167 1363 160.284 1363 152V15Z" fill="#6F1A07"/>
<path fill-rule="evenodd" clip-rule="evenodd" d="M1218.5 55C1218.37 55 1218.24 55.0527 1218.15 55.1464C1218.05 55.2402 1218 55.3674 1218 55.5V111.5C1218 111.633 1218.05 111.76 1218.15 111.854C1218.24 111.947 1218.37 112 1218.5 112H1278C1278.13 112 1278.26 111.947 1278.35 111.854C1278.45 111.76 1278.5 111.633 1278.5 111.5V66C1278.5 65.8674 1278.45 65.7402 1278.35 65.6464C1278.26 65.5527 1278.13 65.5 1278 65.5H1248.25C1247.36 65.5 1246.52 65.1045 1245.95 64.4206L1238.09 55H1218.5ZM1213.9 50.9038C1215.12 49.6848 1216.78 49 1218.5 49H1239.5C1240.39 49 1241.23 49.3955 1241.8 50.0794L1249.66 59.5H1278C1279.72 59.5 1281.38 60.1848 1282.6 61.4038C1283.82 62.6228 1284.5 64.2761 1284.5 66V111.5C1284.5 113.224 1283.82 114.877 1282.6 116.096C1281.38 117.315 1279.72 118 1278 118H1218.5C1216.78 118 1215.12 117.315 1213.9 116.096C1212.68 114.877 1212 113.224 1212 111.5V55.5C1212 53.7761 1212.68 52.1228 1213.9 50.9038Z" fill="white"/>
<path fill-rule="evenodd" clip-rule="evenodd" d="M1243.72 77.5251C1245.09 78.892 1245.09 81.108 1243.72 82.4749L1237.45 88.75L1243.72 95.0251C1245.09 96.392 1245.09 98.608 1243.72 99.9749C1242.36 101.342 1240.14 101.342 1238.78 99.9749L1230.03 91.2249C1228.66 89.858 1228.66 87.642 1230.03 86.2751L1238.78 77.5251C1240.14 76.1583 1242.36 76.1583 1243.72 77.5251Z" fill="white"/>
<path fill-rule="evenodd" clip-rule="evenodd" d="M1252.03 99.9749C1250.66 98.608 1250.66 96.392 1252.03 95.0251L1258.3 88.75L1252.03 82.4749C1250.66 81.108 1250.66 78.892 1252.03 77.5251C1253.39 76.1583 1255.61 76.1583 1256.97 77.5251L1265.72 86.2751C1267.09 87.642 1267.09 89.858 1265.72 91.2249L1256.97 99.9749C1255.61 101.342 1253.39 101.342 1252.03 99.9749Z" fill="white"/>
</svg>
